<?xml version="1.0" encoding="iso-8859-1"?>
<!-- Generator: Adobe Illustrator 16.0.0, SVG Export Plug-In . SVG Version: 6.00 Build 0)  -->
<!DOCTYPE svg PUBLIC "-//W3C//DTD SVG 1.1//EN" "http://www.w3.org/Graphics/SVG/1.1/DTD/svg11.dtd">
<svg version="1.1" id="Capa_1" xmlns="http://www.w3.org/2000/svg" xmlns:xlink="http://www.w3.org/1999/xlink" x="0px" y="0px"
	 width="50px" height="50px" viewBox="0 0 50 50" style="enable-background:new 0 0 50 50;" xml:space="preserve">
<g>
	<g>
		<path d="M25.001,7.612c1.915,0,3.473-2.227,3.473-4.143S26.916,0,25.001,0c-1.918,0-3.473,1.553-3.473,3.47
			C21.528,5.386,23.083,7.612,25.001,7.612z"/>
		<path d="M9.075,16.466c1.917,0,3.472-2.227,3.472-4.144c0-1.916-1.555-3.471-3.472-3.471c-1.914,0-3.471,1.555-3.471,3.471
			C5.605,14.239,7.161,16.466,9.075,16.466z"/>
		<path d="M12.92,29.506v-9.369c0.138,0.037,0.265,0.076,0.381,0.111l1,9.005c0.078,0.701,0.672,1.22,1.364,1.22
			c0.05,0,0.101-0.003,0.152-0.007c0.753-0.086,1.296-0.766,1.212-1.518l-1.098-9.887c-0.008-0.067-0.045-0.121-0.06-0.188
			c-0.026-0.097-0.045-0.192-0.09-0.282c-0.043-0.076-0.101-0.144-0.158-0.211c-0.055-0.07-0.1-0.138-0.166-0.197
			c-0.079-0.067-0.172-0.114-0.266-0.162c-0.056-0.03-0.097-0.075-0.156-0.096c-0.135-0.047-3.29-1.18-5.961-1.18
			c-2.446,0-5.294,0.948-5.855,1.145c-0.026,0.006-0.051,0.019-0.079,0.028c-0.003,0.001-0.021,0.007-0.021,0.007
			c-0.021,0.008-0.035,0.024-0.054,0.034c-0.142,0.058-0.276,0.132-0.39,0.234c-0.043,0.038-0.069,0.088-0.106,0.129
			c-0.075,0.086-0.149,0.17-0.202,0.271C2.326,18.68,2.309,18.77,2.285,18.86c-0.019,0.068-0.056,0.13-0.063,0.201l-1.101,9.887
			C1.04,29.7,1.583,30.38,2.335,30.466c0.054,0.005,0.104,0.007,0.153,0.007c0.693,0,1.285-0.519,1.362-1.22l1.002-9.005
			c0.117-0.035,0.244-0.074,0.382-0.111v9.369L4.306,41.047H1.114v5.331h1.325V50h13.275v-3.622h1.325v-5.331h-3.191L12.92,29.506z
			 M9.075,31.223c0.239,0,0.463-0.054,0.666-0.146l0.803,9.97H7.61l0.801-9.97C8.616,31.169,8.84,31.223,9.075,31.223z"/>
		<path d="M40.923,14.25c1.917,0,3.473-2.224,3.473-4.141c0-1.918-1.556-3.471-3.473-3.471c-1.916,0-3.471,1.553-3.471,3.471
			C37.452,12.026,39.007,14.25,40.923,14.25z"/>
		<path d="M32.962,32.197h-3.188l-0.929-11.544v-7.95c0.175,0.079,0.359,0.133,0.547,0.133c0.441,0,0.879-0.219,1.144-0.612
			l6.588-9.885c0.422-0.629,0.25-1.483-0.381-1.903c-0.631-0.422-1.48-0.25-1.901,0.381l-5.265,7.896
			c-1.092-0.354-2.859-0.82-4.576-0.82c-1.721,0-3.485,0.467-4.575,0.819l-5.267-7.896c-0.418-0.629-1.271-0.799-1.899-0.381
			c-0.631,0.42-0.805,1.274-0.383,1.903l6.589,9.885c0.266,0.394,0.7,0.612,1.143,0.612c0.187,0,0.371-0.054,0.549-0.133v7.95
			l-0.93,11.543H17.04v5.33h1.321V50h13.281V37.527h1.32V32.197z M25.001,22.366c0.235,0,0.461-0.05,0.664-0.142l0.803,9.973h-2.934
			l0.803-9.973C24.538,22.316,24.764,22.366,25.001,22.366z"/>
		<path d="M45.697,38.835l-0.93-11.54v-9.37c0.138,0.037,0.265,0.076,0.381,0.108l1.002,9.004c0.076,0.702,0.67,1.221,1.362,1.221
			c0.051,0,0.099-0.004,0.154-0.008c0.75-0.085,1.295-0.761,1.211-1.514l-1.102-9.887c-0.005-0.07-0.041-0.125-0.059-0.188
			c-0.025-0.097-0.045-0.191-0.09-0.281c-0.041-0.08-0.101-0.144-0.155-0.215c-0.056-0.067-0.102-0.138-0.166-0.196
			c-0.08-0.063-0.175-0.111-0.269-0.16c-0.056-0.029-0.097-0.074-0.156-0.097c-0.135-0.047-3.288-1.182-5.961-1.182
			c-2.443,0-5.292,0.952-5.854,1.146c-0.026,0.006-0.051,0.016-0.077,0.024c-0.005,0.002-0.021,0.01-0.023,0.01
			c-0.021,0.009-0.031,0.024-0.053,0.031c-0.142,0.06-0.275,0.135-0.388,0.235c-0.045,0.039-0.071,0.088-0.108,0.131
			c-0.075,0.088-0.148,0.172-0.202,0.274c-0.041,0.086-0.056,0.175-0.082,0.265c-0.019,0.067-0.056,0.127-0.062,0.201l-1.097,9.888
			c-0.086,0.752,0.457,1.428,1.209,1.513c0.053,0.006,0.104,0.008,0.152,0.008c0.692,0,1.285-0.519,1.364-1.221l1.002-9.004
			c0.115-0.032,0.242-0.071,0.381-0.108v9.37l-0.93,11.54h-3.191v5.33h1.325V50h13.276v-5.835h1.323v-5.33H45.697z M40.923,29.006
			c0.239,0,0.463-0.052,0.668-0.145l0.802,9.974h-2.937l0.803-9.974C40.464,28.954,40.688,29.006,40.923,29.006z"/>
	</g>
</g>
<g>
</g>
<g>
</g>
<g>
</g>
<g>
</g>
<g>
</g>
<g>
</g>
<g>
</g>
<g>
</g>
<g>
</g>
<g>
</g>
<g>
</g>
<g>
</g>
<g>
</g>
<g>
</g>
<g>
</g>
</svg>
